<svg xmlns:dc="http://purl.org/dc/elements/1.1/" xmlns:cc="http://creativecommons.org/ns#" xmlns:rdf="http://www.w3.org/1999/02/22-rdf-syntax-ns#" xmlns:svg="http://www.w3.org/2000/svg" xmlns="http://www.w3.org/2000/svg" xmlns:sodipodi="http://sodipodi.sourceforge.net/DTD/sodipodi-0.dtd" xmlns:inkscape="http://www.inkscape.org/namespaces/inkscape" version="1.1" x="0px" y="0px" viewBox="0 0 100 125"><g transform="translate(0,-952.36218)"><path style="text-indent:0;text-transform:none;direction:ltr;block-progression:tb;baseline-shift:baseline;color:#000000;enable-background:accumulate;" d="m 60.257244,973.37271 a 2.0001998,2.0001998 0 0 1 0.9688,0.40625 l 32.000001,25 a 2.0001998,2.0001998 0 0 1 0,3.15624 l -32.000001,25 a 2.0001998,2.0001998 0 0 1 -3.2188,-1.5625 l 0,-10.9687 c -5.3013,-0.052 -30.4724,0.5408 -48.6874967,16.4687 a 2.0001998,2.0001998 0 0 1 -3.2187,-2.125 c 8.3537997,-25.738 33.8297967,-37.05568 51.9061967,-41.87499 l 0,-11.5 a 2.0001998,2.0001998 0 0 1 2.25,-2 z m 1.75,6.0625 0,8.9375 a 2.0001998,2.0001998 0 0 1 -1.5,1.9375 c -15.8338,4.0084 -37.7687,13.32859 -47.718797,33.09379 20.571097,-13.8573 45.452497,-13.1187 47.312597,-13.0313 a 2.0001998,2.0001998 0 0 1 1.9062,2 l 0,8.9063 26.750001,-20.9063 -26.750001,-20.93749 z" fill="#000000" fill-opacity="1" stroke="none" marker="none" visibility="visible" display="inline" overflow="visible"/></g><text x="0" y="115" fill="#000000" font-size="5px" font-weight="bold" font-family="'Helvetica Neue', Helvetica, Arial-Unicode, Arial, Sans-serif">Created by Numero Uno</text><text x="0" y="120" fill="#000000" font-size="5px" font-weight="bold" font-family="'Helvetica Neue', Helvetica, Arial-Unicode, Arial, Sans-serif">from the Noun Project</text></svg>